<svg id="svg" xmlns="http://www.w3.org/2000/svg" xmlns:xlink="http://www.w3.org/1999/xlink" width="400" height="400" viewBox="0, 0, 400,400" version="1.1"><g id="svgg"><path id="path0" d="M183.667 10.682 C 92.659 18.813,19.392 89.817,10.672 178.333 C 10.274 182.367,9.659 187.917,9.304 190.667 C 8.493 196.944,8.490 202.963,9.293 209.727 C 9.637 212.627,10.254 218.150,10.663 222.000 C 18.170 292.677,67.064 354.341,135.000 378.809 C 182.134 395.786,239.294 392.738,282.000 370.971 C 290.336 366.722,291.105 366.857,311.333 376.109 C 334.785 386.834,331.825 386.852,349.668 375.878 C 367.180 365.106,367.234 366.984,348.889 348.570 C 335.691 335.322,334.525 333.967,335.380 332.869 C 335.895 332.208,338.296 329.514,340.715 326.883 C 395.933 266.836,404.835 171.926,361.837 101.667 C 324.115 40.028,254.293 4.372,183.667 10.682 M217.611 83.782 C 278.582 93.114,323.834 152.071,316.301 212.362 L 315.846 216.000 219.629 216.000 C 165.744 216.000,123.254 216.255,123.053 216.580 C 121.884 218.472,127.763 233.712,132.813 241.880 C 159.393 284.877,221.460 290.826,256.475 253.733 L 261.257 248.667 283.184 248.667 C 295.244 248.667,305.297 248.852,305.524 249.079 C 307.496 251.052,292.491 272.943,282.040 283.340 C 224.983 340.105,128.797 323.934,93.649 251.667 C 52.064 166.163,123.524 69.383,217.611 83.782 M191.667 122.058 C 160.673 124.545,133.987 146.232,124.339 176.776 C 123.390 179.778,122.767 182.632,122.953 183.117 C 123.231 183.843,136.851 184.000,199.312 184.000 L 275.333 184.000 275.333 182.076 C 275.333 169.610,259.140 145.826,243.391 135.159 C 231.401 127.039,206.397 119.365,198.667 121.434 C 198.483 121.483,195.333 121.764,191.667 122.058 " stroke="none" fill="#000000" fill-rule="evenodd"></path></g></svg>